<svg width="36" height="27" fill="none" xmlns="http://www.w3.org/2000/svg"><g clip-path="url(#clip0)"><path d="M26.587 26.692c.55-.412.55-1.08.002-1.492L12.013 14.246c-.548-.412-.548-1.08.002-1.493L26.588 1.8c.549-.413.548-1.08-.002-1.492-.55-.411-1.44-.41-1.989.002L10.025 11.263C9.202 11.88 8.79 12.69 8.79 13.5s.41 1.62 1.233 2.236L24.598 26.69c.549.413 1.44.413 1.99.002z" fill="#15136B"/></g><defs><clipPath id="clip0"><path transform="rotate(90 36 0)" fill="#fff" d="M36 0h27v36H36z"/></clipPath></defs></svg>