<svg width="47" height="47" fill="none" xmlns="http://www.w3.org/2000/svg"><g clip-path="url(#clip0)" fill="#15136B"><path d="M45.767 36.257l-9.513-6.344a2.777 2.777 0 00-3.718.604l-2.771 3.563a1.184 1.184 0 01-1.519.32l-.527-.291c-1.747-.953-3.921-2.138-8.302-6.52-4.38-4.383-5.569-6.558-6.52-8.302l-.29-.527a1.186 1.186 0 01.313-1.525l3.56-2.77a2.778 2.778 0 00.605-3.718l-6.344-9.513A2.762 2.762 0 007.018.396L3.04 2.786a5.611 5.611 0 00-2.559 3.32C-.95 11.326.127 20.334 13.396 33.605 23.95 44.16 31.809 46.998 37.21 46.998a13.876 13.876 0 003.682-.481 5.606 5.606 0 003.32-2.56l2.392-3.975a2.762 2.762 0 00-.837-3.725zm-.512 2.922l-2.387 3.978a4.048 4.048 0 01-2.389 1.851c-4.818 1.323-13.236.227-25.975-12.512S.67 11.34 1.992 6.521a4.054 4.054 0 011.854-2.392l3.978-2.387c.55-.33 1.261-.17 1.616.364l3.446 5.174 2.893 4.338a1.205 1.205 0 01-.262 1.613l-3.561 2.77a2.741 2.741 0 00-.726 3.519l.282.514c1.001 1.835 2.246 4.12 6.79 8.662 4.543 4.543 6.826 5.787 8.66 6.788l.515.284c1.19.667 2.69.358 3.519-.726l2.77-3.562a1.206 1.206 0 011.613-.261l9.513 6.344c.533.354.694 1.067.363 1.616zM26.632 7.837c7.35.009 13.306 5.965 13.315 13.315a.783.783 0 101.566 0c-.01-8.215-6.666-14.872-14.881-14.881a.783.783 0 100 1.566z"/><path d="M26.632 12.537a8.626 8.626 0 018.615 8.615.783.783 0 101.567 0c-.007-5.62-4.562-10.175-10.182-10.182a.783.783 0 100 1.567z"/><path d="M26.632 17.236a3.92 3.92 0 013.916 3.916.783.783 0 101.566 0 5.489 5.489 0 00-5.482-5.483.783.783 0 100 1.567z"/></g><defs><clipPath id="clip0"><path fill="#fff" d="M0 0h47v47H0z"/></clipPath></defs></svg>