<svg width="52" height="50" fill="none" xmlns="http://www.w3.org/2000/svg"><g clip-path="url(#clip0)"><path d="M44.382 13.95C41.337 8.39 36.42 4.414 30.537 2.752c-5.883-1.661-12.027-.809-17.302 2.4-5.274 3.21-9.047 8.393-10.624 14.594-1.576 6.2-.767 12.677 2.278 18.236 2.732 4.987 7.073 8.777 12.225 10.672A21.823 21.823 0 0024.65 50c2.767 0 5.53-.53 8.141-1.588.46-.186.689-.73.512-1.213-.177-.484-.692-.726-1.151-.54-6.95 2.816-14.476 1.537-20.097-2.911l.798-4.392.384-.131c1.454-.498 2.252-2.149 1.78-3.68l-.282-.916a1.09 1.09 0 010-.648 3.061 3.061 0 00-.242-2.388 2.783 2.783 0 00-1.86-1.39l-2.01-.413-3.88-3.11a.854.854 0 00-.814-.145l-2.272.778a23.328 23.328 0 01-.003-2.564c.09.088.148.148.184.187.045.078.1.15.164.212.186.178.354.258.706.258.325 0 .805-.068 1.597-.191.752-.117 1.5-.25 1.507-.25a.9.9 0 00.672-.558.982.982 0 00-.084-.897l-1.09-1.69 1.565-1.18a.925.925 0 00.254-.296l2.426-4.463.977-1.104c1-1.129 1.284-2.78.726-4.207a4.267 4.267 0 00-1.622-2.014 21.052 21.052 0 012.49-1.778c3.238-1.97 6.771-2.925 10.267-2.961l-1.59 2.103-5.9 2.18a.912.912 0 00-.529.528l-1.647 4.21a.981.981 0 00.098.903l2.406 3.552c-.344.332-.68.814-1.08 1.414-.176.262-.342.51-.456.65-.1.12-.2.24-.299.356-.517.614-1.052 1.249-1.432 2.096-.836 1.865-.667 4.033.44 5.657 1.071 1.57 2.837 2.369 4.721 2.135a6.62 6.62 0 00.87-.185c.764-.199 1.006-.219 1.251.023.12.117.13.14.128.539-.002.254-.004.57.08.93.132.577.476.976.752 1.296.138.16.28.324.323.435.278.702.157 1.09-.108 1.942a34.5 34.5 0 00-.07.223c-.402 1.315.16 2.618.655 3.768.16.373.313.726.412 1.038.801 2.505 1.402 3.078 1.883 3.31.253.12.514.173.778.173 1.284 0 2.624-1.257 3.24-2.053.387-.5.482-1.002.551-1.367.035-.182.062-.326.114-.42a2.44 2.44 0 01.293-.396c.238-.284.536-.636.728-1.276.146-.485.253-.604.605-1l.196-.222c1.187-1.36.881-2.4.558-3.501-.273-.926.204-1.519 1.355-2.65.5-.49 1.016-.996 1.415-1.605.175-.266.706-1.077.377-1.88-.322-.788-1.141-.92-1.8-1.027-.259-.042-.652-.105-.777-.191-.55-.38-.888-1.173-1.214-1.94a31.493 31.493 0 00-.194-.45c-.116-.26-.232-.576-.354-.91-.324-.884-.692-1.886-1.317-2.585-.562-.627-1.622-.93-2.556-1.197a10.6 10.6 0 01-.807-.25.847.847 0 00-.512-.034c-.455.113-.739.237-.95.415a1.16 1.16 0 00-.317.45c-.326-.165-.775-.48-1.05-.674l-.018-.012a1.397 1.397 0 00-.08-.904c-.497-1.11-2.149-1.023-2.475-.994-.185.017-.419.025-.667.035-.389.014-.82.03-1.245.08l.022-.064c.323-.948 1.183-1.586 2.14-1.586h.506c.492 0 .89-.42.89-.939 0-.518-.398-.938-.89-.938h-.507c-1.42 0-2.72.787-3.448 2.027l-1.33-1.962 1.308-3.34 5.765-2.13a.895.895 0 00.402-.301l2.562-3.388c6.547.657 12.71 4.526 16.242 10.973a22.59 22.59 0 012.1 5.375l-.378.355a2.568 2.568 0 00-.793 1.824v.023l-.616-1.784a2.375 2.375 0 00-.4-.725l-1.098-1.354a2.187 2.187 0 00-1.7-.826H38.61a1.28 1.28 0 00-1.137.718c-.225.443-.2.978.064 1.396l.136.215a9.78 9.78 0 01-2.941 1.841l-1.842-3.718V17.4c0-.257-.1-.502-.276-.679l-1.658-1.668a.885.885 0 00-.32-.207l-1.492-.553c-.465-.172-.973.085-1.136.574-.163.49.08 1.026.545 1.198l1.312.485 1.244 1.252v.658c0 .151.034.3.1.434l2.306 4.655a.871.871 0 001.098.446l.671-.26a11.605 11.605 0 004.18-2.82.977.977 0 00.112-1.185l-.048-.075h.426a.44.44 0 01.345.168l1.098 1.354a.482.482 0 01.081.147l1.211 3.51a.907.907 0 00.644.596.851.851 0 00.823-.253l.577-.607a2.98 2.98 0 00.736-1.412c.892 7.531-1.91 15.322-7.832 20.221a.973.973 0 00-.15 1.319.86.86 0 001.25.158c4.276-3.537 7.213-8.595 8.27-14.244 1.069-5.704.136-11.621-2.625-16.661zM6.037 28.473l3.673 2.944a.869.869 0 00.369.174l2.214.456a.98.98 0 01.664.496c.145.262.176.565.086.853a3.052 3.052 0 00-.002 1.813l.282.915c.169.547-.116 1.137-.635 1.315l-.886.303a.924.924 0 00-.6.716l-.712 3.92a22.236 22.236 0 01-4.058-5.335 22.837 22.837 0 01-2.588-7.82l2.193-.75zm5.192-14.976L10.18 14.68a.941.941 0 00-.122.174l-2.38 4.38-2.115 1.593a.972.972 0 00-.218 1.293l.791 1.223c-.456.072-.865.13-1.137.162a46.092 46.092 0 00-1.108-1.05c.723-4.72 2.881-9.167 6.275-12.561.65.216 1.183.727 1.443 1.393a2.17 2.17 0 01-.381 2.21zm7.263 5.13c.398-.235 1.32-.27 1.993-.294.27-.01.525-.02.753-.04.12-.01.253-.009.38.001a.984.984 0 00-.05.485.938.938 0 00.46.684c.166.094.399.257.645.43.696.49 1.486 1.044 2.227 1.094.674.046 1.05-.359 1.21-.531.013-.014.025-.028.038-.04a.993.993 0 00.238-.308c.143.043.292.086.446.13.527.15 1.51.43 1.726.672.385.43.686 1.25.95 1.973.135.366.261.71.403 1.03.061.137.121.279.182.422.411.966.877 2.062 1.865 2.743.449.309.998.397 1.483.476l.194.032c-.288.423-.698.825-1.13 1.25-1.103 1.083-2.476 2.43-1.844 4.58.299 1.014.313 1.124-.167 1.674l-.184.207c-.41.461-.735.825-1.004 1.717-.078.26-.179.38-.363.597-.146.175-.33.392-.498.696-.202.364-.269.715-.322.997-.053.278-.083.417-.187.55a5.292 5.292 0 01-1.124 1.05c-.419.28-.663.318-.747.312-.095-.107-.439-.578-.96-2.205a13.504 13.504 0 00-.478-1.214c-.38-.881-.771-1.792-.58-2.414l.066-.216c.305-.98.593-1.904.06-3.25-.163-.41-.421-.71-.649-.975-.147-.17-.314-.364-.34-.476a2.139 2.139 0 01-.03-.475c.004-.49.008-1.232-.691-1.922-.986-.973-2.136-.673-2.896-.475-.234.061-.455.119-.65.143-1.252.155-2.37-.343-3.067-1.366-.73-1.07-.835-2.51-.276-3.759.27-.603.68-1.089 1.153-1.65.104-.123.208-.247.312-.373.174-.211.365-.497.567-.8.242-.361.691-1.033.886-1.161z" fill="#15136B"/></g><defs><clipPath id="clip0"><path fill="#fff" d="M0 0h52v50H0z"/></clipPath></defs></svg>