<svg width="47" height="47" fill="none" xmlns="http://www.w3.org/2000/svg"><g clip-path="url(#clip0)" fill="#15136B"><path d="M46.992 17.968a.745.745 0 00-.033-.16.782.782 0 00-.044-.134.702.702 0 00-.078-.12.74.74 0 00-.105-.121c-.012-.011-.018-.026-.031-.037l-7.534-5.851V5.481a2.35 2.35 0 00-2.35-2.35h-8.49L24.93.49a2.323 2.323 0 00-2.857 0l-3.4 2.64h-8.49a2.35 2.35 0 00-2.35 2.35v6.064L.301 17.396c-.013.011-.019.026-.031.037a.736.736 0 00-.105.121.7.7 0 00-.078.12.774.774 0 00-.044.135.744.744 0 00-.033.157c0 .016-.009.03-.009.047V44.65c.001.498.162.983.46 1.382.005.007.005.016.01.022l.026.022c.44.58 1.124.92 1.852.924H44.65a2.339 2.339 0 001.858-.928c.006-.008.016-.01.021-.018.006-.008.006-.015.011-.022.298-.4.459-.884.46-1.382V18.015c0-.017-.009-.03-.01-.047zM23.03 1.728a.751.751 0 01.934 0l1.807 1.403h-4.543l1.802-1.403zM2.546 45.433L23.03 29.522a.752.752 0 01.934 0l20.49 15.911H2.545zm42.888-1.221L24.93 28.286a2.324 2.324 0 00-2.857 0L1.565 44.212V19.208l12.838 9.969a.784.784 0 00.96-1.24L2.32 17.812l5.511-4.283v6.054a.783.783 0 101.567 0V5.48c0-.433.35-.783.783-.783h26.635c.433 0 .783.35.783.783v14.1a.783.783 0 101.567 0v-6.053l5.511 4.283-13.064 10.145a.783.783 0 10.96 1.238l12.86-9.986v25.004z"/><path d="M32.9 18.799v-3.134a9.4 9.4 0 10-9.401 9.4.783.783 0 100-1.566 7.834 7.834 0 117.834-7.834V18.8a1.567 1.567 0 11-3.134 0v-3.134a.783.783 0 00-1.567 0 3.133 3.133 0 11-3.133-3.133.783.783 0 100-1.567 4.7 4.7 0 103.167 8.164 3.125 3.125 0 006.233-.33z"/></g><defs><clipPath id="clip0"><path fill="#fff" d="M0 0h47v47H0z"/></clipPath></defs></svg>