<svg width="28" height="44" fill="none" xmlns="http://www.w3.org/2000/svg"><path d="M22.398 30.744l-4.656-3.105a1.359 1.359 0 00-1.82.296l-1.355 1.743a.58.58 0 01-.744.156l-.257-.142c-.856-.466-1.92-1.046-4.063-3.19-2.144-2.145-2.726-3.21-3.192-4.064l-.141-.258a.58.58 0 01.153-.746l1.742-1.355a1.36 1.36 0 00.296-1.82l-3.104-4.655a1.352 1.352 0 00-1.823-.41l-1.946 1.169c-.612.36-1.06.942-1.253 1.625-.7 2.554-.173 6.963 6.32 13.457C11.723 34.611 15.568 36 18.21 36a6.79 6.79 0 001.802-.235 2.743 2.743 0 001.625-1.253l1.17-1.945a1.352 1.352 0 00-.409-1.823zm-.25 1.43l-1.169 1.946a1.98 1.98 0 01-1.169.906c-2.358.648-6.477.111-12.712-6.123C.864 22.67.328 18.55.975 16.191a1.98 1.98 0 01.907-1.17l1.947-1.169a.587.587 0 01.79.178l1.687 2.532 1.416 2.123a.59.59 0 01-.128.79L5.85 20.83a1.342 1.342 0 00-.355 1.721l.138.252c.49.898 1.099 2.016 3.322 4.24 2.224 2.222 3.341 2.831 4.24 3.321l.251.14a1.342 1.342 0 001.722-.356l1.356-1.743a.59.59 0 01.79-.128l4.655 3.105c.26.173.34.522.177.79z" fill="#FF5429"/></svg>