<svg width="41" height="41" fill="none" xmlns="http://www.w3.org/2000/svg"><g clip-path="url(#clip0)" fill="#ED5730"><path d="M5.37 33.782c-1.112 0-2.013.889-2.013 1.985s.901 1.984 2.014 1.984c1.112 0 2.013-.888 2.013-1.984s-.902-1.984-2.013-1.985zm0 2.646a.666.666 0 01-.67-.661c0-.366.3-.662.67-.662.371 0 .672.297.672.662 0 .365-.3.661-.671.661z"/><path d="M39.608 7.322h-2.014c-8.338 0-13.981-2.256-15.484-6.187a.712.712 0 00-.635-.429.67.67 0 00-.626.442C19.382 5.245 14.4 7.322 6.042 7.322H3.357a.666.666 0 00-.672.66v12.57H.671a.666.666 0 00-.671.661v18.523c0 .365.3.661.671.662h33.772c3.222-.004 5.832-2.576 5.836-5.75V7.982c0-.365-.3-.661-.671-.661zM8.728 39.075H1.342v-17.2h7.384v17.2zm27.526-1.495a1.763 1.763 0 01-1.81 1.495H10.07v-17.2h8.727a.67.67 0 00.632-.44l2.592-7.151c.402-1.108 1.639-1.686 2.763-1.29a2.125 2.125 0 011.38 2.485l-1.308 5.586a.661.661 0 00.654.81h8.923a1.762 1.762 0 011.81 1.495 1.659 1.659 0 01-1.438 1.797.685.685 0 00-.595.768.688.688 0 00.593.586c.918.125 1.56.96 1.432 1.866a1.67 1.67 0 01-1.652 1.427.666.666 0 00-.67.662c0 .365.3.661.671.66a1.666 1.666 0 011.667 1.666 1.662 1.662 0 01-1.447 1.626.685.685 0 00-.594.769.688.688 0 00.593.585 1.664 1.664 0 011.451 1.798zm2.682-2.933a4.38 4.38 0 01-1.37 3.176c.006-.04.02-.08.025-.12a2.956 2.956 0 00-1.117-2.602 2.94 2.94 0 00-.007-4.626 2.94 2.94 0 00.004-4.628 2.959 2.959 0 001.11-2.598c-.196-1.56-1.553-2.723-3.148-2.697h-8.08l1.12-4.775c.434-1.859-.742-3.713-2.628-4.142a3.554 3.554 0 00-.353-.061c-1.633-.213-3.193.733-3.735 2.265l-2.433 6.713H4.028V8.645h2.014c8.095 0 13.286-1.926 15.463-5.73 3.065 4.95 11.243 5.73 16.089 5.73h1.342v26.002z"/><path d="M19.71 6.813a13.962 13.962 0 01-8.841 3.155H6.042a.666.666 0 00-.671.66v6.617h1.342v-5.953h4.156a15.322 15.322 0 009.7-3.461l-.86-1.017zm17.213 3.155h-4.827a13.961 13.961 0 01-8.841-3.155l-.86 1.017a15.322 15.322 0 009.7 3.46h4.156v5.954h1.343V10.63c0-.365-.3-.661-.671-.661z"/></g><defs><clipPath id="clip0"><path fill="#fff" transform="translate(0 .706)" d="M0 0h40.279v39.691H0z"/></clipPath></defs></svg>