<svg width="41" height="41" fill="none" xmlns="http://www.w3.org/2000/svg"><path d="M35.123 27.157c1.733 1.003 2.552 3.964 2.723 5.022l1.292 7.772 1.35-.141-1.291-7.781c-.027-.172-.71-4.27-3.267-5.741a15.372 15.372 0 00-2.737-1.13.734.734 0 00-.19-.082l-.562-.159a49.482 49.482 0 00-2.588-.718l-.526-.146a.798.798 0 00-.161-.03 81.87 81.87 0 00-3.345-.763v-1.188c2.034-1.16 3.243-3.03 3.24-5.022v-.915c.227.066.467.1.707.103 1.136 0 2.058-.734 2.058-1.64v-1.463c0-.397-.184-.78-.515-1.076.22-.278.33-.603.322-.93v-.625c.031-.455-.15-.904-.506-1.262a1.538 1.538 0 00-.683-.316c-.162-1.482-1.044-5.833-5.751-7.534h-.041a12.517 12.517 0 00-3.875-.66h-.392a13.36 13.36 0 00-3.749.47h-.031c-5.213 1.528-6.152 6.171-6.3 7.71-.262.051-.5.16-.685.315-.373.353-.569.803-.545 1.263v.643c-.01.328.101.651.32.928-.329.298-.514.681-.514 1.079v1.465c0 .906.922 1.64 2.058 1.64.242 0 .479-.035.705-.103v.918c.005 1.97 1.187 3.82 3.183 4.98v1.22c-2.407.5-4.78 1.108-7.102 1.822h-.03c-1.03.307-2.01.708-2.927 1.192-2.557 1.484-3.24 5.578-3.268 5.741L.21 39.801l1.35.139 1.29-7.785c.173-1.056.99-4.013 2.701-5.024a11.27 11.27 0 011.724-.736v4.663c-.995.292-2.25 1.108-2.25 2.83v5.995c0 .296.301.538.675.538h29.33c.373 0 .673-.242.673-.538v-5.985c0-1.722-1.263-2.537-2.25-2.828v-4.663c.587.206 1.145.458 1.67.75zm-4.635-14.022v1.467c-.03.31-.372.542-.76.518-.345-.023-.62-.242-.649-.518v-1.467c-.029-.31.26-.581.649-.608.388-.024.73.208.76.517a.339.339 0 010 .09zm-9.18-11.302c.82.05 1.63.192 2.403.419v2.724c-.556.638-1.434 1.048-2.404 1.122V1.833zm-3.754.27a11.947 11.947 0 012.404-.295v4.305c-.97-.074-1.85-.485-2.404-1.124V2.102zm-5.927 12.495c-.03.31-.373.542-.76.517-.345-.02-.62-.24-.648-.517v-1.463c-.032-.31.259-.581.648-.608.387-.024.73.208.76.517a.451.451 0 010 .09v1.464zm-.706-3.106c-.129 0-.254.01-.377.028a.48.48 0 01-.137-.391v-.652a.732.732 0 01.158-.485.146.146 0 01.096-.02h.26c.372 0 .675-.242.675-.54 0-.25.089-5.024 4.604-6.897V5.12c0 .08.023.157.066.229.047.075 1.147 1.866 4.361 1.866 3.213 0 4.318-1.794 4.362-1.866a.427.427 0 00.061-.23V2.795c3.958 2.013 4.052 6.397 4.052 6.638 0 .298.303.54.675.54h.261c.067 0 .082 0 .094.02.115.149.168.32.158.497v.64a.464.464 0 01-.144.39c-.662-.103-1.347.063-1.822.447H12.382c-.387-.307-.913-.475-1.457-.47l-.004-.004zm2.056 5.568v-4.017h14.761v4.017c-.005 2.82-2.875 5.104-6.413 5.101h-1.944c-3.534 0-6.4-2.283-6.404-5.101zm11.511 5.637v.795l-4.14 4.22-4.185-4.22v-.818a9.32 9.32 0 003.218.567h1.944c1.092 0 2.17-.186 3.163-.544zM12.262 24.96a93.67 93.67 0 012.97-.672l5.126 5.167 5.068-5.167c.583.122 1.71.358 3.024.685v6.164H12.247l.015-6.177zm22.093 8.937v5.456H6.375v-5.456c0-1.625 1.508-1.858 1.669-1.88.335-.038.581-.266.581-.534v-5.526a49.96 49.96 0 012.296-.646v6.365c0 .298.302.54.675.54h17.55c.373 0 .676-.242.676-.54v-6.354l2.273.635v5.526c0 .269.25.499.584.533.07.007 1.676.2 1.676 1.88z" fill="#ED5730"/><path d="M7.937 33.22h3.644v.965H7.938v-.966zm21.188 0h3.646v.965h-3.646v-.966z" fill="#ED5730"/></svg>