<svg width="44" height="43" fill="none" xmlns="http://www.w3.org/2000/svg"><g clip-path="url(#clip0)"><path d="M19.904 17.294v1.083h1.476a6.39 6.39 0 012.625.715c1.773.942 2.749 2.655 2.749 4.824 0 2.904-2.357 5.275-5.285 5.357a1.73 1.73 0 01-.261.021c-1.88 0-3.676-1.006-4.689-2.625a1.652 1.652 0 01.553-2.294 1.706 1.706 0 012.327.545c.37.592 1.045.998 1.705 1.037a1.71 1.71 0 01.21-.014c1.134 0 2.057-.91 2.057-2.027 0-1.19-.514-1.626-.901-1.85a2.95 2.95 0 00-1.17-.355h-3.088a1.68 1.68 0 01-1.691-1.667v-4.417c0-.92.757-1.666 1.691-1.666h6.85a1.68 1.68 0 011.692 1.666 1.68 1.68 0 01-1.692 1.667h-5.158zM37.158 6.542c-4.09-4.03-9.526-6.248-15.31-6.248a1.68 1.68 0 00-1.69 1.666c0 .92.757 1.667 1.69 1.667 10.073 0 18.268 8.075 18.268 18 0 9.926-8.195 18.001-18.267 18.001-10.073 0-18.267-8.075-18.267-18A1.68 1.68 0 001.89 19.96 1.68 1.68 0 00.2 21.628c0 5.698 2.252 11.056 6.341 15.085 4.09 4.03 9.526 6.248 15.309 6.248 5.783 0 11.22-2.219 15.309-6.248 4.089-4.03 6.34-9.387 6.34-15.085 0-5.699-2.251-11.056-6.34-15.086zM15.675 4.544a1.68 1.68 0 001.692-1.667 1.68 1.68 0 00-1.692-1.667c-.934 0-1.691.746-1.691 1.667 0 .92.757 1.667 1.691 1.667zm-5.581 2.833a1.68 1.68 0 001.691-1.667 1.68 1.68 0 00-1.691-1.666A1.68 1.68 0 008.402 5.71a1.68 1.68 0 001.692 1.667zm-4.398 4.334a1.68 1.68 0 001.691-1.667 1.68 1.68 0 00-1.691-1.667 1.68 1.68 0 00-1.691 1.667c0 .92.757 1.667 1.69 1.667zm-2.875 5.5a1.68 1.68 0 001.69-1.667 1.68 1.68 0 00-1.69-1.667 1.68 1.68 0 00-1.692 1.667c0 .92.757 1.667 1.692 1.667z" fill="#ED5730" fill-opacity=".8"/></g><defs><clipPath id="clip0"><path fill="#fff" d="M0 0h43.3v42.668H0z"/></clipPath></defs></svg>