<svg width="48" height="47" fill="none" xmlns="http://www.w3.org/2000/svg"><g clip-path="url(#clip0)" fill="#ED5730"><path d="M40.036 15.049l-2.174-2.6a2.282 2.282 0 01-.525-1.249l-.328-3.354c-.17-1.742-1.578-3.13-3.346-3.297l-3.404-.323a2.357 2.357 0 01-1.267-.517l-2.639-2.143a3.77 3.77 0 00-4.731 0l-2.639 2.143a2.35 2.35 0 01-1.267.517l-3.404.323c-1.768.168-3.175 1.554-3.345 3.297l-.328 3.354c-.045.46-.227.892-.525 1.249l-2.175 2.6a3.63 3.63 0 000 4.662l2.175 2.6c.298.357.48.79.525 1.25l.328 3.353c.17 1.743 1.577 3.129 3.345 3.297l2.081.198-4.943 11.639a.871.871 0 00.158.93.9.9 0 00.917.265l4.289-1.193a.04.04 0 01.045.018l2.148 3.848a.894.894 0 00.834.458.896.896 0 00.785-.543l5.219-12.29c.177-.1.347-.215.509-.346l2.638-2.144a2.35 2.35 0 011.16-.503l4.727 11.13-3.345-.93a1.416 1.416 0 00-1.621.667l-1.675 3.001-2.219-5.225a.69.69 0 00-.899-.363.673.673 0 00-.368.885l2.6 6.121a.895.895 0 00.783.54l.047.001a.895.895 0 00.787-.46l2.147-3.847a.04.04 0 01.046-.018l4.287 1.193a.902.902 0 00.918-.265.871.871 0 00.158-.93l-4.943-11.64 2.08-.197c1.77-.168 3.177-1.554 3.347-3.297l.328-3.354a2.28 2.28 0 01.525-1.249l2.174-2.6a3.63 3.63 0 000-4.662zM19.737 44.416l-1.675-3.001a1.416 1.416 0 00-1.621-.668l-3.344.93 4.726-11.129c.427.06.826.232 1.16.503l2.639 2.143a3.747 3.747 0 002.528.832l-4.412 10.39zm19.24-25.565l-2.175 2.6a3.622 3.622 0 00-.833 1.98l-.328 3.353a2.333 2.333 0 01-2.11 2.08l-2.99.283a.422.422 0 00-.035.004l-.378.036c-.74.07-1.436.353-2.01.82L25.48 32.15a2.376 2.376 0 01-2.984 0l-2.639-2.143a3.732 3.732 0 00-2.01-.82l-.38-.037a.478.478 0 00-.03-.002l-2.993-.285a2.333 2.333 0 01-2.11-2.079l-.327-3.354a3.622 3.622 0 00-.833-1.98l-2.175-2.6a2.29 2.29 0 010-2.94l2.175-2.6c.474-.566.761-1.25.833-1.98l.327-3.354a2.333 2.333 0 012.11-2.08l3.404-.323a3.735 3.735 0 002.01-.82l2.638-2.143a2.364 2.364 0 011.492-.527c.53 0 1.06.176 1.492.527l2.638 2.143c.574.467 1.27.75 2.01.82l3.403.323a2.333 2.333 0 012.11 2.08l.328 3.353c.072.73.36 1.415.833 1.98l2.175 2.6a2.29 2.29 0 010 2.941z"/><path d="M23.988 6.806c-.459 0-.92.028-1.373.085a.679.679 0 00-.594.757.686.686 0 00.768.586c.395-.05.798-.075 1.199-.075 5.16 0 9.356 4.136 9.356 9.22 0 5.084-4.197 9.22-9.356 9.22-5.16 0-9.357-4.136-9.357-9.22 0-3.626 2.17-6.93 5.528-8.415a.673.673 0 00.345-.895.69.69 0 00-.908-.34c-3.85 1.704-6.338 5.492-6.338 9.65 0 5.83 4.813 10.574 10.73 10.574 5.916 0 10.73-4.743 10.73-10.574 0-5.83-4.814-10.573-10.73-10.573z"/><path d="M17.166 16.595a2.05 2.05 0 000 2.927l3 2.957c.397.39.924.606 1.486.606.56 0 1.088-.216 1.485-.606l6.549-6.454a2.051 2.051 0 000-2.927 2.126 2.126 0 00-2.97 0l-5.064 4.99-1.515-1.493a2.125 2.125 0 00-2.97 0zm4.486 3.127a.692.692 0 00.485-.199l5.55-5.468a.735.735 0 011.027 0 .71.71 0 010 1.013l-6.549 6.453a.728.728 0 01-.513.21.727.727 0 01-.514-.21l-3-2.956a.71.71 0 010-1.013.73.73 0 011.027 0l2 1.971a.692.692 0 00.487.199z"/></g><defs><clipPath id="clip0"><path fill="#fff" transform="translate(.849 .73)" d="M0 0h46.321v45.645H0z"/></clipPath></defs></svg>